<svg xmlns="http://www.w3.org/2000/svg" width="319.2" height="86.484" viewBox="0 0 319.2 86.484">
  <g id="logo-ceracor" transform="translate(-290.22 -141.606)">
    <path id="Trazado_1" data-name="Trazado 1" d="M294.395,151.679l5.46,4.368,10.342-8.273,10.92,8.735-10.342,8.273,5.46,4.369,15.8-12.642L310.2,139.037Z" transform="translate(44.772 21.48)" fill="#ffa800" fill-rule="evenodd"/>
    <path id="Trazado_2" data-name="Trazado 2" d="M302.646,151.343l6.082,4.865,9.167-7.334-27.838-22.268L262.22,148.874l19.163,15.33,6.082-4.865-13.081-10.465,15.674-12.538,15.674,12.538Z" transform="translate(28 15)" fill="#ea3521" fill-rule="evenodd"/>
    <path id="Trazado_3" data-name="Trazado 3" d="M299.946,155.422l23.233,18.587L299.946,192.6l-23.233-18.587Zm0-11.431-37.522,30.018,37.522,30.018,37.522-30.018Z" transform="translate(28.107 24.063)" fill="#e50019" fill-rule="evenodd"/>
    <path id="Trazado_4" data-name="Trazado 4" d="M385.68,181.445a7.469,7.469,0,0,1-3.251-.634,4.225,4.225,0,0,1-1.988-1.973,7.761,7.761,0,0,1-.671-3.464,8.26,8.26,0,0,1,.605-3.374,4.325,4.325,0,0,1,1.74-2.017,5.189,5.189,0,0,1,2.7-.671,4.836,4.836,0,0,1,2.626.675,4.254,4.254,0,0,1,1.646,2.031,8.821,8.821,0,0,1,.566,3.4v.531h-8.079a5.472,5.472,0,0,0,.47,2.223,2.94,2.94,0,0,0,1.436,1.413,5.743,5.743,0,0,0,2.417.444,9.181,9.181,0,0,0,1.515-.129,15.948,15.948,0,0,0,1.635-.368v1.418a13.142,13.142,0,0,1-1.733.379,11.418,11.418,0,0,1-1.634.119m-4.053-6.689h6.312l0-.117c0-.053,0-.106,0-.16a6.68,6.68,0,0,0-.35-2.017,2.767,2.767,0,0,0-1.068-1.425,3.137,3.137,0,0,0-1.722-.447,3.244,3.244,0,0,0-1.734.443,2.8,2.8,0,0,0-1.1,1.418,6.742,6.742,0,0,0-.383,2.306Zm72.589,6.689a7.467,7.467,0,0,1-3.249-.634,4.219,4.219,0,0,1-1.988-1.973,7.761,7.761,0,0,1-.671-3.464,8.26,8.26,0,0,1,.605-3.374,4.331,4.331,0,0,1,1.739-2.017,5.2,5.2,0,0,1,2.7-.671,4.837,4.837,0,0,1,2.627.675,4.262,4.262,0,0,1,1.646,2.031,8.82,8.82,0,0,1,.566,3.4v.531h-8.081a5.5,5.5,0,0,0,.472,2.223,2.941,2.941,0,0,0,1.436,1.413,5.733,5.733,0,0,0,2.417.444,9.208,9.208,0,0,0,1.515-.129,15.923,15.923,0,0,0,1.634-.368v1.418a13.122,13.122,0,0,1-1.731.379,11.438,11.438,0,0,1-1.635.119m-4.053-6.689h6.313l0-.117c0-.053,0-.106-.006-.16a6.686,6.686,0,0,0-.348-2.017,2.767,2.767,0,0,0-1.068-1.425,3.137,3.137,0,0,0-1.722-.447,3.25,3.25,0,0,0-1.736.443,2.806,2.806,0,0,0-1.1,1.418,6.741,6.741,0,0,0-.383,2.306Zm53.36,6.689a13.787,13.787,0,0,1-1.842-.119,10.581,10.581,0,0,1-1.7-.368v-1.4a12.447,12.447,0,0,0,1.8.389,12.662,12.662,0,0,0,1.754.12,4.141,4.141,0,0,0,2.391-.528,1.691,1.691,0,0,0,.715-1.442,1.656,1.656,0,0,0-.415-1.212,2.88,2.88,0,0,0-1.5-.628l-1.8-.326a4.3,4.3,0,0,1-2.435-1.124,2.977,2.977,0,0,1-.726-2.078,3.03,3.03,0,0,1,1.191-2.46,5.94,5.94,0,0,1,3.745-.961,12.5,12.5,0,0,1,1.57.1,10.273,10.273,0,0,1,1.45.292v1.4a10.422,10.422,0,0,0-1.494-.31,11.961,11.961,0,0,0-1.494-.09,5.722,5.722,0,0,0-1.926.26,2.01,2.01,0,0,0-1.007.706,1.77,1.77,0,0,0-.3,1.015,1.709,1.709,0,0,0,.389,1.136,2.526,2.526,0,0,0,1.462.682l1.8.326a4.7,4.7,0,0,1,2.457,1.063,2.817,2.817,0,0,1,.768,2.107,3.012,3.012,0,0,1-1.212,2.522,5.922,5.922,0,0,1-3.637.931M491,180a3.777,3.777,0,0,0,1.873-.444,2.88,2.88,0,0,0,1.219-1.457,7.037,7.037,0,0,0,.426-2.7,7.128,7.128,0,0,0-.426-2.725,2.864,2.864,0,0,0-1.223-1.454,3.778,3.778,0,0,0-1.868-.443,3.817,3.817,0,0,0-1.877.437,2.847,2.847,0,0,0-1.223,1.447,7.015,7.015,0,0,0-.429,2.694,7.189,7.189,0,0,0,.429,2.729,2.9,2.9,0,0,0,1.223,1.463A3.756,3.756,0,0,0,491,180m0,1.45a5.833,5.833,0,0,1-2.807-.645,4.377,4.377,0,0,1-1.862-1.985,9.217,9.217,0,0,1-.011-6.862,4.352,4.352,0,0,1,1.854-1.991,5.843,5.843,0,0,1,2.825-.65,5.906,5.906,0,0,1,2.82.639,4.3,4.3,0,0,1,1.851,1.981,7.858,7.858,0,0,1,.653,3.443,7.721,7.721,0,0,1-.663,3.424,4.414,4.414,0,0,1-1.87,2,5.771,5.771,0,0,1-2.792.65m-9.7,0a4.245,4.245,0,0,1-2.98-.971,3.93,3.93,0,0,1-1.057-3.033v-6.473h-2.315V169.5h2.315l.3-4.275h1.482V169.5h4.005v1.473h-4.005v6.158a2.878,2.878,0,0,0,.671,2.165,2.786,2.786,0,0,0,1.97.628,6.191,6.191,0,0,0,.726-.044,7.388,7.388,0,0,0,.823-.151v1.492a7.594,7.594,0,0,1-.963.175,8.9,8.9,0,0,1-.975.053m-19.183-.207V169.5h1.494l.129,1.331h.12a5.508,5.508,0,0,1,1.818-1.126,6.013,6.013,0,0,1,2.154-.389,4.9,4.9,0,0,1,2.131.437,3.163,3.163,0,0,1,1.441,1.4,5.359,5.359,0,0,1,.519,2.551v7.542h-1.786v-7.477a2.433,2.433,0,0,0-2.7-2.869,5.137,5.137,0,0,0-1.206.152,4.63,4.63,0,0,0-1.234.5,4.164,4.164,0,0,0-1.089.922v8.776Zm-18.82-14.3a1.317,1.317,0,0,1-.913-.289,1.012,1.012,0,0,1-.321-.8,1.044,1.044,0,0,1,.321-.809,1.584,1.584,0,0,1,1.833,0,1.05,1.05,0,0,1,.313.809,1.017,1.017,0,0,1-.313.8,1.319,1.319,0,0,1-.92.289m-.9,2.554h1.786v11.743h-1.786Zm-20.665,11.743V169.5h1.492l.131,1.342h.119a4.626,4.626,0,0,1,1.623-1.143,5.023,5.023,0,0,1,1.959-.383,4.007,4.007,0,0,1,1.88.426,2.91,2.91,0,0,1,1.223,1.27,4.958,4.958,0,0,1,1.746-1.252,5.559,5.559,0,0,1,2.1-.444,4.242,4.242,0,0,1,1.955.434,3.023,3.023,0,0,1,1.333,1.386,5.646,5.646,0,0,1,.479,2.533v7.574h-1.775v-7.489a3,3,0,0,0-.663-2.236,2.428,2.428,0,0,0-1.728-.621,4.032,4.032,0,0,0-1.147.173,3.611,3.611,0,0,0-1.152.587,3.5,3.5,0,0,0-.713.73,8.05,8.05,0,0,1,.09,1.247v7.608h-1.765v-7.489a3.108,3.108,0,0,0-.631-2.236,2.315,2.315,0,0,0-1.7-.621,3.734,3.734,0,0,0-1.086.166,3.808,3.808,0,0,0-1.068.525,4.033,4.033,0,0,0-.919.922v8.734Zm-5.665-14.3a1.316,1.316,0,0,1-.913-.289,1.012,1.012,0,0,1-.321-.8,1.044,1.044,0,0,1,.321-.809,1.584,1.584,0,0,1,1.833,0,1.05,1.05,0,0,1,.313.809,1.017,1.017,0,0,1-.313.8,1.319,1.319,0,0,1-.92.289m-.9,2.554h1.786v11.743h-1.786Zm-11.553,1.473V169.5h2.317l.3-4.275h1.483V169.5h4v1.473h-4v6.158a2.878,2.878,0,0,0,.671,2.165,2.785,2.785,0,0,0,1.97.628,6.23,6.23,0,0,0,.726-.044,7.455,7.455,0,0,0,.823-.151v1.492a7.619,7.619,0,0,1-.965.175,8.876,8.876,0,0,1-.974.053,4.239,4.239,0,0,1-2.98-.971,3.925,3.925,0,0,1-1.057-3.033v-6.473Zm-6.952,10.477a13.827,13.827,0,0,1-1.844-.119,10.652,10.652,0,0,1-1.7-.368v-1.4a12.466,12.466,0,0,0,1.8.389,12.638,12.638,0,0,0,1.753.12,4.147,4.147,0,0,0,2.393-.528,1.689,1.689,0,0,0,.714-1.442,1.655,1.655,0,0,0-.414-1.212,2.886,2.886,0,0,0-1.5-.628l-1.8-.326a4.3,4.3,0,0,1-2.436-1.124,2.978,2.978,0,0,1-.726-2.078,3.03,3.03,0,0,1,1.191-2.46,5.937,5.937,0,0,1,3.745-.961,12.491,12.491,0,0,1,1.568.1,10.291,10.291,0,0,1,1.451.292v1.4a10.421,10.421,0,0,0-1.494-.31,11.96,11.96,0,0,0-1.494-.09,5.737,5.737,0,0,0-1.927.26,2.005,2.005,0,0,0-1.006.706,1.771,1.771,0,0,0-.3,1.015,1.71,1.71,0,0,0,.391,1.136,2.521,2.521,0,0,0,1.46.682l1.8.326a4.69,4.69,0,0,1,2.457,1.063,2.818,2.818,0,0,1,.77,2.107,3.012,3.012,0,0,1-1.212,2.522,5.925,5.925,0,0,1-3.637.931m-26.418-.207L365.456,169.5h1.906l4.069,10.212,4.059-10.212h1.786l-4.784,11.743Zm-11.055.207a7.462,7.462,0,0,1-3.249-.634,4.219,4.219,0,0,1-1.988-1.973,7.761,7.761,0,0,1-.672-3.464,8.234,8.234,0,0,1,.607-3.374,4.323,4.323,0,0,1,1.739-2.017,5.193,5.193,0,0,1,2.7-.671,4.841,4.841,0,0,1,2.627.675,4.251,4.251,0,0,1,1.644,2.031,8.819,8.819,0,0,1,.568,3.4v.531h-8.081a5.444,5.444,0,0,0,.472,2.223,2.944,2.944,0,0,0,1.435,1.413,5.745,5.745,0,0,0,2.419.444,9.207,9.207,0,0,0,1.515-.129,15.916,15.916,0,0,0,1.634-.368v1.418a13.12,13.12,0,0,1-1.731.379,11.452,11.452,0,0,1-1.635.119m-4.053-6.689h6.313l0-.117c0-.053,0-.106-.006-.16a6.637,6.637,0,0,0-.35-2.017,2.751,2.751,0,0,0-1.068-1.425,3.128,3.128,0,0,0-1.721-.447,3.246,3.246,0,0,0-1.736.443,2.817,2.817,0,0,0-1.1,1.418,6.783,6.783,0,0,0-.382,2.306Zm-10.509,6.482V169.5h1.494l.142,1.549h.119A4.221,4.221,0,0,1,348,169.807a5.048,5.048,0,0,1,2.036-.431c.195,0,.379.008.548.021a4.344,4.344,0,0,1,.513.076v1.645a4.145,4.145,0,0,0-.552-.071c-.187-.011-.386-.015-.595-.015a4.834,4.834,0,0,0-1.238.173,4.946,4.946,0,0,0-1.263.534,3.714,3.714,0,0,0-1.039.928v8.571Z" transform="translate(70.955 34.886)" fill="#f9f9f9" fill-rule="evenodd"/>
    <path id="Trazado_5" data-name="Trazado 5" d="M344.122,173.152a29.469,29.469,0,0,1-8.2-1.042,15.748,15.748,0,0,1-6.061-3.2,13.557,13.557,0,0,1-3.742-5.492,22.208,22.208,0,0,1-1.275-7.911,19.341,19.341,0,0,1,2.279-9.756,14.441,14.441,0,0,1,6.651-6,25.3,25.3,0,0,1,10.7-2.031,38.352,38.352,0,0,1,4.085.21,31.336,31.336,0,0,1,3.85.654v6.441a29.423,29.423,0,0,0-3.548-.631,32.99,32.99,0,0,0-3.779-.21,16.48,16.48,0,0,0-6.7,1.176,8,8,0,0,0-3.943,3.663,13.681,13.681,0,0,0-1.307,6.386,14.025,14.025,0,0,0,1.3,6.5,7.813,7.813,0,0,0,3.872,3.633,15.926,15.926,0,0,0,6.449,1.144,26.587,26.587,0,0,0,3.876-.28,32.828,32.828,0,0,0,3.779-.794v6.418a26.978,26.978,0,0,1-3.945.825,31.789,31.789,0,0,1-4.339.3" transform="translate(60.644 20.797)" fill="#f9f9f9" fill-rule="evenodd"/>
    <path id="Trazado_6" data-name="Trazado 6" d="M346.045,172.557V138.018H371.9v6.137H353.887v7.679H369.5v6.114H353.887v8.47h18.249v6.138Z" transform="translate(71.696 20.949)" fill="#f9f9f9" fill-rule="evenodd"/>
    <path id="Trazado_7" data-name="Trazado 7" d="M366.1,172.7V139.026q1.634-.351,3.54-.654c1.267-.2,2.574-.357,3.928-.467s2.684-.163,3.99-.163q7.724,0,11.645,2.668t3.92,8.44a10.212,10.212,0,0,1-1.829,6.208,11.016,11.016,0,0,1-5.25,3.756l-.137.05L396.13,172.7H387.4l-9.2-12.627-.342,0c-.715,0-1.384-.015-2.014-.047s-1.284-.062-1.953-.093V172.7Zm12-18.366q3.9,0,5.764-1.3a4.7,4.7,0,0,0,1.867-4.162,5.559,5.559,0,0,0-.8-3.141,4.618,4.618,0,0,0-2.443-1.759,12.986,12.986,0,0,0-4.155-.56c-.855,0-1.641.03-2.364.1s-1.416.172-2.07.3V154.1c.484.046.949.085,1.393.125s.895.07,1.354.085.94.023,1.454.023" transform="translate(82.148 20.805)" fill="#f9f9f9" fill-rule="evenodd"/>
    <path id="Trazado_8" data-name="Trazado 8" d="M384.888,172.557l12.02-34.539h11.458l12.042,34.539h-7.819l-3.073-9.195H395.663l-3.074,9.195Zm22.591-15.286-4.889-14.624L397.7,157.271Z" transform="translate(91.944 20.949)" fill="#f9f9f9" fill-rule="evenodd"/>
    <path id="Trazado_9" data-name="Trazado 9" d="M426.822,173.152a29.465,29.465,0,0,1-8.2-1.042,15.737,15.737,0,0,1-6.061-3.2,13.543,13.543,0,0,1-3.742-5.492,22.208,22.208,0,0,1-1.275-7.911,19.341,19.341,0,0,1,2.279-9.756,14.441,14.441,0,0,1,6.651-6,25.3,25.3,0,0,1,10.7-2.031,38.372,38.372,0,0,1,4.085.21,31.336,31.336,0,0,1,3.85.654v6.441a29.423,29.423,0,0,0-3.548-.631,33,33,0,0,0-3.78-.21,16.473,16.473,0,0,0-6.7,1.176,8.012,8.012,0,0,0-3.943,3.663,13.681,13.681,0,0,0-1.307,6.386,14.045,14.045,0,0,0,1.3,6.5A7.822,7.822,0,0,0,421,165.544a15.927,15.927,0,0,0,6.449,1.144,26.551,26.551,0,0,0,3.875-.28,32.782,32.782,0,0,0,3.78-.794v6.418a26.98,26.98,0,0,1-3.945.825,31.794,31.794,0,0,1-4.34.3" transform="translate(103.755 20.797)" fill="#f9f9f9" fill-rule="evenodd"/>
    <path id="Trazado_10" data-name="Trazado 10" d="M444.661,173.152a20.241,20.241,0,0,1-9.242-1.984,13.948,13.948,0,0,1-6.067-5.927,23.437,23.437,0,0,1,0-19.6,13.943,13.943,0,0,1,6.067-5.928,22.462,22.462,0,0,1,18.476.008,14.041,14.041,0,0,1,6.052,5.944,23.344,23.344,0,0,1,0,19.556,14.01,14.01,0,0,1-6.067,5.936,20.086,20.086,0,0,1-9.219,2m0-6.3a10.1,10.1,0,0,0,5.017-1.182A7.562,7.562,0,0,0,452.891,162,15.847,15.847,0,0,0,454,155.6a16.464,16.464,0,0,0-1.127-6.628,7.815,7.815,0,0,0-3.221-3.748,9.839,9.839,0,0,0-4.987-1.2,10.138,10.138,0,0,0-4.994,1.167,7.619,7.619,0,0,0-3.228,3.648,15.639,15.639,0,0,0-1.135,6.433,16.75,16.75,0,0,0,1.12,6.66,7.636,7.636,0,0,0,3.213,3.733,10.07,10.07,0,0,0,5.025,1.182" transform="translate(114.002 20.797)" fill="#f9f9f9" fill-rule="evenodd"/>
    <path id="Trazado_11" data-name="Trazado 11" d="M452.3,172.7V139.026q1.634-.351,3.54-.654c1.267-.2,2.574-.357,3.928-.467s2.684-.163,3.99-.163q7.724,0,11.645,2.668t3.92,8.44a10.212,10.212,0,0,1-1.829,6.208,11.016,11.016,0,0,1-5.25,3.756l-.137.05L482.335,172.7h-8.728l-9.2-12.627-.342,0c-.715,0-1.384-.015-2.014-.047s-1.284-.062-1.953-.093V172.7Zm12-18.366q3.9,0,5.764-1.3a4.7,4.7,0,0,0,1.867-4.162,5.558,5.558,0,0,0-.8-3.141,4.618,4.618,0,0,0-2.443-1.759,12.987,12.987,0,0,0-4.155-.56c-.855,0-1.641.03-2.364.1s-1.416.172-2.07.3V154.1c.484.046.949.085,1.393.125s.895.07,1.354.085.94.023,1.454.023" transform="translate(127.084 20.805)" fill="#f9f9f9" fill-rule="evenodd"/>
  </g>
</svg>
