<svg xmlns="http://www.w3.org/2000/svg" width="320" height="86.7" viewBox="0 0 320 86.7">
  <g id="logo-ceracor-scroll" transform="translate(-290.219 -141.606)">
    <path id="Trazado_1" data-name="Trazado 1" d="M294.395,151.711l5.474,4.379,10.367-8.293,10.947,8.757-10.368,8.293,5.474,4.38,15.841-12.673-21.894-17.516Z" transform="translate(44.895 21.528)" fill="#ffa800" fill-rule="evenodd"/>
    <path id="Trazado_2" data-name="Trazado 2" d="M302.747,151.4l6.1,4.877,9.19-7.352-27.908-22.324L262.22,148.93,281.431,164.3l6.1-4.877L274.414,148.93l15.713-12.57,15.713,12.57Z" transform="translate(28 15)" fill="#ea3521" fill-rule="evenodd"/>
    <path id="Trazado_3" data-name="Trazado 3" d="M300.04,155.451l23.291,18.633L300.04,192.717l-23.291-18.633Zm0-11.46-37.616,30.093,37.616,30.093,37.616-30.093Z" transform="translate(28.107 24.129)" fill="#e50019" fill-rule="evenodd"/>
    <path id="Trazado_4" data-name="Trazado 4" d="M385.783,181.487a7.487,7.487,0,0,1-3.259-.636,4.236,4.236,0,0,1-1.993-1.978,7.781,7.781,0,0,1-.673-3.473,8.281,8.281,0,0,1,.607-3.383A4.336,4.336,0,0,1,382.21,170a5.2,5.2,0,0,1,2.705-.673,4.848,4.848,0,0,1,2.632.677,4.264,4.264,0,0,1,1.65,2.036,8.843,8.843,0,0,1,.567,3.407v.532h-8.1a5.485,5.485,0,0,0,.471,2.228,2.948,2.948,0,0,0,1.44,1.417,5.757,5.757,0,0,0,2.423.445,9.206,9.206,0,0,0,1.519-.13,15.989,15.989,0,0,0,1.639-.369v1.421a13.176,13.176,0,0,1-1.737.38,11.443,11.443,0,0,1-1.638.119m-4.063-6.706h6.328l0-.117c0-.053,0-.107,0-.16a6.7,6.7,0,0,0-.351-2.022,2.774,2.774,0,0,0-1.071-1.429,3.145,3.145,0,0,0-1.726-.448,3.252,3.252,0,0,0-1.739.444,2.808,2.808,0,0,0-1.107,1.421,6.759,6.759,0,0,0-.384,2.312Zm72.771,6.706a7.485,7.485,0,0,1-3.258-.636,4.229,4.229,0,0,1-1.993-1.978,7.779,7.779,0,0,1-.673-3.473,8.28,8.28,0,0,1,.607-3.383A4.341,4.341,0,0,1,450.918,170a5.21,5.21,0,0,1,2.706-.673,4.85,4.85,0,0,1,2.634.677,4.273,4.273,0,0,1,1.65,2.036,8.843,8.843,0,0,1,.567,3.407v.532h-8.1a5.509,5.509,0,0,0,.473,2.228,2.948,2.948,0,0,0,1.44,1.417,5.747,5.747,0,0,0,2.423.445,9.233,9.233,0,0,0,1.519-.13,15.967,15.967,0,0,0,1.638-.369v1.421a13.156,13.156,0,0,1-1.736.38,11.464,11.464,0,0,1-1.639.119m-4.063-6.706h6.329l0-.117c0-.053,0-.107-.006-.16a6.7,6.7,0,0,0-.349-2.022,2.774,2.774,0,0,0-1.071-1.429,3.145,3.145,0,0,0-1.726-.448,3.258,3.258,0,0,0-1.74.444,2.813,2.813,0,0,0-1.106,1.421,6.757,6.757,0,0,0-.384,2.312Zm53.494,6.706a13.82,13.82,0,0,1-1.847-.119,10.61,10.61,0,0,1-1.7-.369v-1.4a12.48,12.48,0,0,0,1.8.39,12.693,12.693,0,0,0,1.758.12,4.152,4.152,0,0,0,2.4-.529,1.7,1.7,0,0,0,.717-1.446,1.66,1.66,0,0,0-.416-1.215,2.888,2.888,0,0,0-1.505-.63l-1.8-.326a4.316,4.316,0,0,1-2.442-1.127,2.985,2.985,0,0,1-.727-2.083,3.037,3.037,0,0,1,1.194-2.466,5.955,5.955,0,0,1,3.755-.964,12.533,12.533,0,0,1,1.574.1,10.3,10.3,0,0,1,1.453.293v1.4a10.446,10.446,0,0,0-1.5-.311,11.987,11.987,0,0,0-1.5-.09,5.736,5.736,0,0,0-1.931.261,2.015,2.015,0,0,0-1.01.708,1.775,1.775,0,0,0-.3,1.017,1.713,1.713,0,0,0,.39,1.139,2.533,2.533,0,0,0,1.466.683l1.8.326a4.708,4.708,0,0,1,2.463,1.066,2.824,2.824,0,0,1,.77,2.112,3.02,3.02,0,0,1-1.216,2.529,5.936,5.936,0,0,1-3.646.933m-12.558-1.453a3.786,3.786,0,0,0,1.877-.445,2.887,2.887,0,0,0,1.222-1.461,7.053,7.053,0,0,0,.427-2.706,7.144,7.144,0,0,0-.427-2.731,2.871,2.871,0,0,0-1.226-1.458,3.788,3.788,0,0,0-1.873-.444,3.826,3.826,0,0,0-1.882.438,2.853,2.853,0,0,0-1.226,1.45,7.031,7.031,0,0,0-.43,2.7,7.205,7.205,0,0,0,.43,2.736,2.908,2.908,0,0,0,1.226,1.467,3.765,3.765,0,0,0,1.882.453m0,1.453a5.847,5.847,0,0,1-2.814-.647,4.388,4.388,0,0,1-1.867-1.99,9.24,9.24,0,0,1-.011-6.88,4.364,4.364,0,0,1,1.859-2,5.858,5.858,0,0,1,2.832-.651,5.92,5.92,0,0,1,2.828.641,4.309,4.309,0,0,1,1.856,1.986,7.876,7.876,0,0,1,.654,3.451,7.74,7.74,0,0,1-.665,3.433,4.425,4.425,0,0,1-1.874,2,5.785,5.785,0,0,1-2.8.651m-9.727,0a4.255,4.255,0,0,1-2.988-.973,3.94,3.94,0,0,1-1.06-3.041v-6.489h-2.321v-1.476h2.321l.305-4.286h1.485v4.286H483.4v1.476h-4.016v6.174a2.885,2.885,0,0,0,.672,2.17,2.792,2.792,0,0,0,1.975.63,6.208,6.208,0,0,0,.727-.044,7.406,7.406,0,0,0,.825-.151v1.5a7.62,7.62,0,0,1-.965.175,8.933,8.933,0,0,1-.978.053m-19.231-.207V169.507h1.5l.13,1.334h.12a5.521,5.521,0,0,1,1.822-1.129,6.028,6.028,0,0,1,2.159-.39,4.914,4.914,0,0,1,2.137.438,3.171,3.171,0,0,1,1.444,1.4,5.372,5.372,0,0,1,.52,2.558v7.561h-1.79v-7.5a2.439,2.439,0,0,0-2.712-2.876,5.15,5.15,0,0,0-1.209.153,4.642,4.642,0,0,0-1.237.5,4.175,4.175,0,0,0-1.092.924v8.8ZM443.54,166.947a1.32,1.32,0,0,1-.915-.29,1.014,1.014,0,0,1-.322-.8,1.047,1.047,0,0,1,.322-.811,1.588,1.588,0,0,1,1.838,0,1.053,1.053,0,0,1,.314.811,1.02,1.02,0,0,1-.314.8,1.323,1.323,0,0,1-.923.29m-.9,2.561h1.79v11.772h-1.79Zm-20.717,11.772V169.507h1.5l.131,1.345h.119a4.638,4.638,0,0,1,1.627-1.145,5.035,5.035,0,0,1,1.964-.384,4.017,4.017,0,0,1,1.885.427,2.917,2.917,0,0,1,1.226,1.273,4.97,4.97,0,0,1,1.751-1.255,5.573,5.573,0,0,1,2.1-.445,4.253,4.253,0,0,1,1.96.435,3.031,3.031,0,0,1,1.336,1.389,5.661,5.661,0,0,1,.48,2.539v7.593h-1.78v-7.508a3.008,3.008,0,0,0-.665-2.242,2.434,2.434,0,0,0-1.732-.622,4.043,4.043,0,0,0-1.15.174,3.62,3.62,0,0,0-1.155.589,3.51,3.51,0,0,0-.715.732,8.073,8.073,0,0,1,.09,1.251v7.627h-1.769v-7.508a3.116,3.116,0,0,0-.633-2.242,2.321,2.321,0,0,0-1.7-.622,3.744,3.744,0,0,0-1.089.166,3.817,3.817,0,0,0-1.071.526,4.044,4.044,0,0,0-.921.924v8.756Zm-5.679-14.333a1.32,1.32,0,0,1-.915-.29,1.014,1.014,0,0,1-.322-.8,1.047,1.047,0,0,1,.322-.811,1.588,1.588,0,0,1,1.838,0,1.052,1.052,0,0,1,.314.811,1.02,1.02,0,0,1-.314.8,1.323,1.323,0,0,1-.923.29m-.9,2.561h1.79v11.772h-1.79Zm-11.582,1.476v-1.476h2.323l.3-4.286h1.487v4.286h4.014v1.476h-4.014v6.174a2.885,2.885,0,0,0,.673,2.17,2.792,2.792,0,0,0,1.975.63,6.249,6.249,0,0,0,.727-.044,7.471,7.471,0,0,0,.825-.151v1.5a7.642,7.642,0,0,1-.967.175,8.9,8.9,0,0,1-.976.053,4.25,4.25,0,0,1-2.988-.973,3.935,3.935,0,0,1-1.06-3.041v-6.489Zm-6.97,10.5a13.859,13.859,0,0,1-1.848-.119,10.68,10.68,0,0,1-1.7-.369v-1.4a12.5,12.5,0,0,0,1.8.39,12.672,12.672,0,0,0,1.757.12,4.157,4.157,0,0,0,2.4-.529,1.694,1.694,0,0,0,.715-1.446,1.659,1.659,0,0,0-.415-1.215,2.894,2.894,0,0,0-1.505-.63l-1.8-.326a4.311,4.311,0,0,1-2.442-1.127,2.985,2.985,0,0,1-.728-2.083,3.037,3.037,0,0,1,1.194-2.466,5.952,5.952,0,0,1,3.755-.964,12.527,12.527,0,0,1,1.572.1,10.321,10.321,0,0,1,1.455.293v1.4a10.444,10.444,0,0,0-1.5-.311,11.986,11.986,0,0,0-1.5-.09,5.751,5.751,0,0,0-1.932.261,2.01,2.01,0,0,0-1.008.708,1.776,1.776,0,0,0-.305,1.017,1.715,1.715,0,0,0,.392,1.139,2.527,2.527,0,0,0,1.464.683l1.8.326a4.7,4.7,0,0,1,2.463,1.066,2.825,2.825,0,0,1,.772,2.112,3.02,3.02,0,0,1-1.215,2.529,5.94,5.94,0,0,1-3.646.933m-26.485-.207-4.8-11.772h1.911l4.08,10.238,4.069-10.238h1.79l-4.8,11.772Zm-11.083.207a7.481,7.481,0,0,1-3.258-.636,4.23,4.23,0,0,1-1.993-1.978,7.78,7.78,0,0,1-.674-3.473,8.254,8.254,0,0,1,.608-3.383A4.334,4.334,0,0,1,355.649,170a5.206,5.206,0,0,1,2.706-.673,4.853,4.853,0,0,1,2.634.677,4.262,4.262,0,0,1,1.649,2.036,8.842,8.842,0,0,1,.569,3.407v.532h-8.1a5.457,5.457,0,0,0,.473,2.228,2.951,2.951,0,0,0,1.438,1.417,5.76,5.76,0,0,0,2.425.445,9.232,9.232,0,0,0,1.519-.13,15.964,15.964,0,0,0,1.638-.369v1.421a13.155,13.155,0,0,1-1.736.38,11.48,11.48,0,0,1-1.639.119m-4.063-6.706h6.329l0-.117c0-.053,0-.107-.006-.16a6.653,6.653,0,0,0-.351-2.022,2.758,2.758,0,0,0-1.071-1.429,3.136,3.136,0,0,0-1.725-.448,3.254,3.254,0,0,0-1.74.444,2.824,2.824,0,0,0-1.107,1.421,6.8,6.8,0,0,0-.383,2.312Zm-10.535,6.5V169.507h1.5l.142,1.553h.119a4.231,4.231,0,0,1,1.627-1.24,5.06,5.06,0,0,1,2.041-.432c.2,0,.38.008.549.021a4.353,4.353,0,0,1,.514.076v1.649a4.157,4.157,0,0,0-.554-.072c-.188-.011-.387-.015-.6-.015a4.844,4.844,0,0,0-1.241.174,4.957,4.957,0,0,0-1.266.535,3.722,3.722,0,0,0-1.042.93v8.592Z" transform="translate(71.269 35.032)" fill="#464749" fill-rule="evenodd"/>
    <path id="Trazado_5" data-name="Trazado 5" d="M344.17,173.241a29.544,29.544,0,0,1-8.22-1.045,15.787,15.787,0,0,1-6.076-3.206,13.591,13.591,0,0,1-3.752-5.506,22.263,22.263,0,0,1-1.278-7.93,19.389,19.389,0,0,1,2.285-9.78,14.477,14.477,0,0,1,6.668-6.012,25.366,25.366,0,0,1,10.723-2.036,38.444,38.444,0,0,1,4.095.21,31.423,31.423,0,0,1,3.86.656v6.457a29.487,29.487,0,0,0-3.556-.633,33.068,33.068,0,0,0-3.788-.21,16.522,16.522,0,0,0-6.716,1.179,8.019,8.019,0,0,0-3.953,3.672,13.716,13.716,0,0,0-1.31,6.4,14.06,14.06,0,0,0,1.3,6.512,7.833,7.833,0,0,0,3.881,3.642,15.967,15.967,0,0,0,6.465,1.147,26.653,26.653,0,0,0,3.886-.281,32.908,32.908,0,0,0,3.788-.8v6.434a27.049,27.049,0,0,1-3.955.827,31.871,31.871,0,0,1-4.35.3" transform="translate(60.883 20.839)" fill="#464749" fill-rule="evenodd"/>
    <path id="Trazado_6" data-name="Trazado 6" d="M346.045,172.643V138.018h25.922v6.152h-18.06v7.7h15.65V158h-15.65v8.492H372.2v6.154Z" transform="translate(72.015 20.992)" fill="#464749" fill-rule="evenodd"/>
    <path id="Trazado_7" data-name="Trazado 7" d="M366.1,172.788V139.029q1.638-.352,3.549-.656c1.27-.2,2.58-.358,3.938-.468s2.69-.163,4-.163q7.744,0,11.674,2.675t3.93,8.461a10.237,10.237,0,0,1-1.833,6.224,11.044,11.044,0,0,1-5.263,3.765l-.137.05,10.252,13.871h-8.749L378.23,160.13l-.343,0c-.717,0-1.388-.015-2.019-.047s-1.287-.063-1.958-.093v12.8Zm12.025-18.412q3.907,0,5.779-1.3a4.716,4.716,0,0,0,1.871-4.173,5.573,5.573,0,0,0-.8-3.149,4.63,4.63,0,0,0-2.449-1.763,13.019,13.019,0,0,0-4.165-.561c-.857,0-1.646.031-2.37.1s-1.42.172-2.076.3v10.319c.485.046.952.085,1.4.125s.9.07,1.357.085.943.023,1.458.023" transform="translate(82.544 20.848)" fill="#464749" fill-rule="evenodd"/>
    <path id="Trazado_8" data-name="Trazado 8" d="M384.888,172.644l12.05-34.626h11.487L420.5,172.644h-7.839l-3.081-9.218H395.69l-3.082,9.218Zm22.647-15.324-4.9-14.661-4.9,14.661Z" transform="translate(92.411 20.993)" fill="#464749" fill-rule="evenodd"/>
    <path id="Trazado_9" data-name="Trazado 9" d="M426.87,173.241a29.54,29.54,0,0,1-8.219-1.045,15.776,15.776,0,0,1-6.076-3.206,13.578,13.578,0,0,1-3.752-5.506,22.264,22.264,0,0,1-1.278-7.93,19.389,19.389,0,0,1,2.285-9.78,14.477,14.477,0,0,1,6.668-6.012,25.366,25.366,0,0,1,10.723-2.036,38.466,38.466,0,0,1,4.095.21,31.422,31.422,0,0,1,3.86.656v6.457a29.483,29.483,0,0,0-3.556-.633,33.075,33.075,0,0,0-3.79-.21,16.514,16.514,0,0,0-6.715,1.179,8.031,8.031,0,0,0-3.953,3.672,13.715,13.715,0,0,0-1.31,6.4,14.081,14.081,0,0,0,1.3,6.512,7.842,7.842,0,0,0,3.883,3.642,15.967,15.967,0,0,0,6.465,1.147,26.617,26.617,0,0,0,3.884-.281,32.862,32.862,0,0,0,3.79-.8v6.434a27.048,27.048,0,0,1-3.954.827,31.877,31.877,0,0,1-4.351.3" transform="translate(104.309 20.839)" fill="#464749" fill-rule="evenodd"/>
    <path id="Trazado_10" data-name="Trazado 10" d="M444.7,173.241a20.292,20.292,0,0,1-9.265-1.989,13.982,13.982,0,0,1-6.082-5.942,23.5,23.5,0,0,1,0-19.652,13.978,13.978,0,0,1,6.082-5.943,22.518,22.518,0,0,1,18.522.008,14.077,14.077,0,0,1,6.067,5.959,23.4,23.4,0,0,1,0,19.6,14.045,14.045,0,0,1-6.082,5.951,20.137,20.137,0,0,1-9.242,2m0-6.317a10.125,10.125,0,0,0,5.03-1.185,7.581,7.581,0,0,0,3.221-3.682,15.886,15.886,0,0,0,1.107-6.41,16.505,16.505,0,0,0-1.13-6.645,7.835,7.835,0,0,0-3.229-3.758,9.864,9.864,0,0,0-5-1.2,10.164,10.164,0,0,0-5.007,1.17,7.639,7.639,0,0,0-3.236,3.657,15.678,15.678,0,0,0-1.138,6.45A16.793,16.793,0,0,0,436.446,162a7.655,7.655,0,0,0,3.221,3.743,10.1,10.1,0,0,0,5.037,1.185" transform="translate(114.631 20.839)" fill="#464749" fill-rule="evenodd"/>
    <path id="Trazado_11" data-name="Trazado 11" d="M452.3,172.788V139.029q1.638-.352,3.549-.656c1.27-.2,2.58-.358,3.938-.468s2.69-.163,4-.163q7.744,0,11.674,2.675t3.93,8.461a10.238,10.238,0,0,1-1.833,6.224,11.044,11.044,0,0,1-5.263,3.765l-.137.05,10.252,13.871h-8.749l-9.227-12.658-.343,0c-.717,0-1.388-.015-2.019-.047s-1.287-.063-1.958-.093v12.8Zm12.025-18.412q3.907,0,5.779-1.3a4.716,4.716,0,0,0,1.871-4.173,5.572,5.572,0,0,0-.8-3.149,4.63,4.63,0,0,0-2.449-1.763,13.019,13.019,0,0,0-4.165-.561c-.857,0-1.646.031-2.37.1s-1.42.172-2.076.3v10.319c.485.046.952.085,1.4.125s.9.07,1.357.085.943.023,1.458.023" transform="translate(127.809 20.848)" fill="#464749" fill-rule="evenodd"/>
  </g>
</svg>
